<?xml version="1.0" encoding="utf-8"?>
<!-- Generator: Adobe Illustrator 26.0.3, SVG Export Plug-In . SVG Version: 6.00 Build 0)  -->
<svg version="1.1" id="Layer_1" xmlns="http://www.w3.org/2000/svg" xmlns:xlink="http://www.w3.org/1999/xlink" x="0px" y="0px"
	 viewBox="0 0 72 72" style="enable-background:new 0 0 72 72;" xml:space="preserve">
<style type="text/css">
	.st0{fill-rule:evenodd;clip-rule:evenodd;fill:#5F5F13;}
</style>
<g>
	<g>
		<path class="st0" d="M14.4,6.8C14.7,7,15,7.1,15.2,7.3c2,1.2,4,2.5,5.9,3.7c0.5,0.3,0.9,0.3,1.4,0.1c1.7-0.8,3.4-1.5,5.2-2.1
			c0.7-0.3,1-0.6,1.1-1.3c0.4-2.2,1-4.3,1.4-6.5C30.4,0.3,30.8,0,31.7,0c2.9,0,5.7,0,8.6,0c0.8,0,1.1,0.2,1.3,1
			c0.4,2.3,1,4.6,1.5,6.8c0.1,0.4,0.6,0.9,1,1c1.8,0.8,3.6,1.5,5.4,2.2c0.4,0.2,1,0.1,1.4-0.1c2-1.2,4-2.5,5.9-3.7
			c0.6-0.4,1-0.4,1.5,0.1c2.1,2.1,4.2,4.2,6.3,6.2c0.6,0.5,0.6,0.9,0.2,1.6c-1.3,1.9-2.5,3.9-3.8,5.9c-0.3,0.5-0.3,0.9-0.1,1.4
			c0.8,1.8,1.5,3.7,2.3,5.5c0.2,0.4,0.6,0.8,1.1,0.9c2.1,0.5,4.3,1,6.5,1.4c0.9,0.2,1.3,0.6,1.3,1.6c-0.1,2.8-0.1,5.6,0,8.4
			c0,0.8-0.3,1.2-1,1.3c-2.2,0.5-4.4,1-6.6,1.5c-0.7,0.1-1.1,0.5-1.3,1.2c-0.6,1.8-1.5,3.5-2.2,5.3c-0.1,0.4-0.1,1,0,1.3
			c1.2,2,2.4,3.9,3.7,5.8c0.5,0.7,0.5,1.2-0.2,1.8c-2.1,2-4.1,4-6.1,6.1c-0.6,0.6-1,0.6-1.7,0.2c-1.9-1.2-3.8-2.4-5.7-3.6
			c-0.6-0.4-1-0.4-1.7-0.1c-1.6,0.8-3.3,1.5-5.1,2.1c-0.7,0.3-1,0.6-1.2,1.3c-0.4,2.1-1,4.2-1.4,6.4c-0.2,0.9-0.6,1.2-1.5,1.2
			c-2.7-0.1-5.5-0.1-8.3,0c-1,0-1.4-0.4-1.6-1.3c-0.4-2.1-0.9-4.2-1.4-6.3c-0.1-0.7-0.4-1-1.1-1.2c-1.8-0.7-3.6-1.5-5.4-2.2
			c-0.4-0.2-1.1-0.2-1.4,0c-1.9,1.1-3.8,2.3-5.6,3.6c-0.8,0.5-1.3,0.5-2-0.2c-2-2.1-4-4.1-6-6.1c-0.5-0.5-0.6-0.9-0.2-1.5
			c1.2-1.9,2.4-3.8,3.6-5.7c0.4-0.7,0.4-1.2,0.1-1.9c-0.8-1.7-1.5-3.5-2.2-5.3c-0.2-0.6-0.5-0.9-1.1-1.1c-2.2-0.4-4.5-1-6.7-1.5
			C0.2,41.4,0,41.1,0,40.4c0-2.9,0-5.9,0-8.8c0-0.8,0.3-1.1,1-1.2c2.2-0.5,4.4-1,6.6-1.4c0.7-0.1,1.1-0.5,1.3-1.2
			c0.6-1.8,1.4-3.5,2.2-5.3c0.3-0.6,0.3-0.9-0.1-1.4c-1.3-1.9-2.5-3.9-3.8-5.9c-0.3-0.5-0.4-0.9,0.1-1.4c2.1-2.1,4.2-4.2,6.3-6.3
			C13.9,7.2,14.1,7,14.4,6.8z M36,52.8c9.4,0,16.8-7.4,16.7-16.8c0-9.2-7.4-16.6-16.6-16.6c-9.5,0-16.9,7.3-16.9,16.7
			C19.2,45.4,26.6,52.8,36,52.8z"/>
	</g>
</g>
</svg>
