<svg width="736" height="457" viewBox="0 0 736 457" fill="none" xmlns="http://www.w3.org/2000/svg">

<path d="M440.896 177.94C441.241 178.643 441.764 181.805 441.898 183.439C442.541 191.314 442.438 200.168 434.215 203.759C431.231 205.063 427.637 205.224 424.393 204.944C423.325 204.851 422.442 203.994 421.381 203.897C418.987 203.681 413.907 206.918 411.214 207.758C399.778 211.329 389.631 211.751 380.87 221.414C376.508 226.225 371.624 237.013 370.895 243.439C369.843 252.73 360.261 267.604 360.261 267.604C360.261 267.604 328.325 231.457 281.51 218.124C294.945 211.147 306.652 190.998 307.679 187.224C308.407 184.549 309.127 181.76 308.895 178.94C310.194 178.688 303.02 151.707 311.009 123.435C312.311 118.83 320.242 120.492 323.366 120.969C339.948 123.507 356.733 120.01 366.381 104.926C368.051 102.315 369.19 97.8641 371.362 95.9071C373.699 93.8021 377.079 93.4652 379.603 92.1482C388.17 87.6822 395.196 77.9352 398.447 68.9922C401.755 59.8892 404.908 33.2411 420.245 41.0901C426.448 44.2651 429.046 49.1602 431.894 54.9402C437.247 65.7972 443.281 80.2362 441.894 92.4402C441.456 96.3092 439.223 108.211 441.33 109.853C446.221 113.668 448.609 121.932 452.421 126.915C454.971 130.246 461.933 136.094 461.951 140.45C461.964 143.766 458.965 145.615 457.884 146.429C454.564 148.93 446.358 146.903 445.001 151.546C443.731 155.888 445.019 158.033 446.792 160.548C447.418 161.435 447.025 162.328 446.254 164.163C445.471 166.021 442.667 166.886 442.667 166.886C442.667 166.886 445.464 169.696 444.945 171.442C444.451 173.113 439.848 175.795 440.896 177.94Z" fill="#8D392D"/>
<path d="M431.895 54.9402C429.046 49.1612 426.449 44.2651 420.246 41.0901C404.909 33.2411 401.756 59.8912 398.448 68.9922C395.197 77.9352 388.172 87.6822 379.604 92.1482C377.08 93.4642 373.7 93.8011 371.363 95.9071C369.19 97.8641 368.051 102.314 366.382 104.926C356.734 120.01 346.995 126.07 330.412 123.532C327.289 123.053 319.505 119.448 316.877 123.448C312.771 129.694 313.41 137.573 314.797 140.173C321.543 152.813 329.923 166.739 344.793 164C335.336 173.098 328.358 172.054 324.021 171.369C324.608 176.163 316.325 185.619 301.847 179.227C276.151 192.532 250.717 163.576 251.445 152.89C247.586 154.836 218.363 135.765 230.953 108.452C220.456 97.9661 231.412 69.4002 252.421 73.9892C257.613 68.0482 266.9 71.5651 266.897 72.9391C266.897 72.9391 266.726 65.2121 266.894 63.4361C269.198 39.1851 286.539 16.7701 308.869 7.41114C327.6 -0.438861 351.726 -2.37285 371.18 3.15415C375.96 4.51215 382.863 8.54615 387.402 7.93915C400.691 6.16415 408.32 6.19516 420.253 13.0822C435.649 21.9722 442.625 39.3542 431.895 54.9402Z" fill="#9BC9C3"/>

<path d="M235.92 245.423C274.463 244.841 309.201 252.234 341.481 270.07C347.191 273.226 352.567 276.85 357.634 280.904C359.81 282.645 361.284 282.325 363.27 280.786C388.453 261.271 417.492 251.367 448.687 247.448C487.541 242.566 526.037 246.356 564.321 253.459C566.828 253.924 568.457 255.197 569.788 257.322C576.417 267.903 581.655 273.121 590.913 292.595C588.432 292.38 547.895 289.429 528.182 287.807C506.779 286.045 485.331 285.114 463.837 285.222C442.859 285.326 421.897 285.272 401.191 289.391C393.483 290.923 385.835 292.568 379.623 297.84C377.923 299.283 376.121 299.562 374.045 299.083C364.667 296.923 355.247 296.825 345.838 298.786C344.078 299.154 342.574 299.262 341.179 298.027C333.357 291.108 323.465 289.996 313.797 288.496C285.179 284.058 256.327 284.67 227.568 285.766C198.334 286.877 157.322 289.546 128.545 293.62C142.656 267.604 150.088 259.13 152.382 255.871C153.226 254.545 154.485 253.856 156.076 253.585C183.137 248.991 210.258 245.02 235.92 245.423ZM452.093 272.748C426.614 271.626 404.794 278.465 388.284 285.458C407.393 280.402 424.947 276.626 452.093 272.748ZM446.061 259.524C433.269 259.906 406.395 263.419 381.278 280.448C404.692 269.86 422.136 265.011 446.061 259.524ZM334.063 285.99C313.335 276.508 291.243 273.577 268.637 273.337C290.773 275.675 312.413 280.55 334.063 285.99ZM338.575 279.862C319.184 267.114 297.525 261.515 274.64 259.858C296.899 263.492 317.875 271.175 338.575 279.862Z" fill="#E0B175"/>
<path d="M223.944 296.3C258.926 296.3 293.909 296.326 328.891 296.25C331.583 296.244 333.625 296.681 335.283 299.046C337.461 302.15 340.892 303.735 344.29 305.088C354.254 309.053 364.418 309.112 374.639 306.144C377.867 305.207 381.425 304.028 383.181 301.277C386.561 295.979 391.279 296.084 396.597 296.098C464.395 296.291 532.193 296.342 599.991 296.439C601.655 296.441 603.348 296.381 604.976 296.656C607.367 297.059 608.065 298.959 608.19 301.089C608.328 303.435 607.188 304.98 604.863 305.295C603.06 305.539 601.207 305.456 599.377 305.455C531.744 305.394 464.111 305.342 396.48 305.211C393.343 305.205 390.725 305.482 388.545 308.151C387.338 309.63 385.447 310.757 383.643 311.505C365.207 319.134 347.374 319.136 330.843 306.619C328.764 305.045 326.794 305.414 324.744 305.413C256.779 305.361 188.813 305.36 120.848 305.351C120.015 305.351 119.179 305.305 118.349 305.359C115.028 305.58 112.581 304.373 112.593 300.791C112.605 297.074 115.293 296.397 118.499 296.401C153.648 296.444 188.796 296.428 223.945 296.428V296.3H223.944Z" fill="#5F5F13"/>
<path d="M354.049 275.105C354.049 275.105 335.57 262.8 327.56 258.975C302.59 247.051 276.252 241.162 248.755 239.187C223.033 237.339 165.601 243.745 164.142 243.745C175.697 227.967 175.706 224.94 183.605 224.166C308.579 211.896 354.049 275.105 354.049 275.105Z" fill="#E0B175"/>
<path d="M366.999 275.105C366.999 275.105 385.478 262.8 393.487 258.975C418.458 247.051 444.796 241.162 472.293 239.187C498.015 237.339 555.446 243.745 556.905 243.745C545.35 227.967 545.342 224.94 537.442 224.166C412.469 211.896 366.999 275.105 366.999 275.105Z" fill="#E0B175"/>
</svg>
