<?xml version="1.0" encoding="utf-8"?>
<!-- Generator: Adobe Illustrator 16.0.0, SVG Export Plug-In . SVG Version: 6.00 Build 0)  -->
<!DOCTYPE svg PUBLIC "-//W3C//DTD SVG 1.1//EN" "http://www.w3.org/Graphics/SVG/1.1/DTD/svg11.dtd">
<svg version="1.1" id="Layer_1" xmlns="http://www.w3.org/2000/svg" xmlns:xlink="http://www.w3.org/1999/xlink" x="0px" y="0px"
	 width="528.531px" height="430.283px" viewBox="0 0 528.531 430.283" enable-background="new 0 0 528.531 430.283"
	 xml:space="preserve">
<g>
	<path fill="#8D392D" d="M344.668,177.938c0.345,0.703,0.868,3.865,1.002,5.499c0.643,7.875,0.54,16.729-7.683,20.32
		c-2.984,1.304-6.578,1.465-9.822,1.185c-1.068-0.093-1.951-0.95-3.012-1.047c-2.394-0.216-7.474,3.021-10.167,3.861
		c-11.436,3.571-21.583,3.993-30.344,13.656c-4.362,4.811-9.246,15.599-9.975,22.025c-1.052,9.291-10.634,24.165-10.634,24.165
		s-31.937-36.147-78.751-49.48c13.436-6.977,25.143-27.126,26.169-30.9c0.728-2.675,1.448-5.464,1.216-8.284
		c1.299-0.252-5.875-27.233,2.114-55.505c1.302-4.605,9.233-2.943,12.356-2.466c16.582,2.538,33.367-0.959,43.016-16.043
		c1.67-2.611,2.809-7.062,4.981-9.019c2.337-2.105,5.717-2.442,8.241-3.759c8.567-4.466,15.593-14.213,18.844-23.156
		c3.308-9.103,6.461-35.751,21.798-27.902c6.203,3.175,8.801,8.07,11.649,13.85c5.353,10.857,11.387,25.296,10,37.5
		c-0.438,3.869-2.671,15.771-0.564,17.413c4.891,3.815,7.279,12.079,11.091,17.062c2.55,3.331,9.512,9.179,9.53,13.535
		c0.013,3.316-2.986,5.165-4.067,5.979c-3.32,2.501-11.526,0.474-12.883,5.117c-1.27,4.342,0.018,6.487,1.791,9.002
		c0.626,0.887,0.233,1.78-0.538,3.615c-0.783,1.858-3.587,2.723-3.587,2.723s2.797,2.81,2.278,4.556
		C348.223,173.111,343.62,175.792,344.668,177.938"/>
	<path fill="#9BC9C3" d="M335.668,54.938c-2.849-5.779-5.446-10.675-11.649-13.85c-15.337-7.849-18.49,18.801-21.798,27.902
		c-3.251,8.943-10.276,18.69-18.844,23.156c-2.524,1.316-5.904,1.653-8.241,3.759c-2.173,1.957-3.312,6.407-4.981,9.019
		c-9.648,15.084-19.387,21.144-35.97,18.606c-3.123-0.479-10.907-4.084-13.535-0.084c-4.106,6.246-3.468,14.125-2.08,16.725
		c6.746,12.64,15.126,26.566,29.996,23.827c-9.457,9.098-16.435,8.054-20.772,7.369c0.588,4.794-7.695,14.25-22.174,7.858
		c-25.695,13.305-51.13-15.651-50.402-26.337c-3.858,1.946-33.082-17.125-20.491-44.438c-10.497-10.486,0.459-39.052,21.468-34.463
		c5.191-5.941,14.479-2.424,14.477-1.05c0,0-0.172-7.727-0.004-9.503c2.305-24.251,19.646-46.666,41.975-56.025
		c18.731-7.85,42.857-9.784,62.312-4.257c4.78,1.358,11.683,5.392,16.222,4.785c13.289-1.775,20.918-1.744,32.851,5.143
		C339.422,21.97,346.398,39.352,335.668,54.938"/>
	<path fill="#8D392D" d="M290.16,416.417c-16.19-0.418-32.888-0.436-49.587-0.342c-4.213,0.023-7.309,1.555-10.15,4.75
		c-8.385,9.424-19.326,10.615-30.963,8.662c-6.869-1.153-13.259-3.635-18.531-8.358c-5.815-5.21-5.812-11.599,0.434-16.273
		c11.409-8.542,24.167-10.935,37.932-6.972c4.658,1.341,8.578,4.078,11.611,7.845c2.376,2.949,5.296,4.032,8.979,4.03
		c27.011-0.014,53.975-1.135,80.919-3.016c7.896-0.552,15.815-1.444,23.759-0.58c1.89,0.206,3.77,0.511,5.439,1.497
		c3.67,2.165,3.812,6.272,0.23,8.62c-2.548,1.669-5.494,2.128-8.479,2.258c-11.264,0.489-22.478-0.616-33.711-1.098
		C302.245,417.191,296.456,416.783,290.16,416.417"/>
	<path fill="#E0B175" d="M139.692,245.421c38.543-0.582,73.281,6.811,105.561,24.647c5.711,3.156,11.086,6.78,16.154,10.834
		c2.176,1.741,3.649,1.421,5.636-0.118c25.183-19.515,54.222-29.419,85.417-33.338c38.854-4.882,77.35-1.092,115.634,6.011
		c2.507,0.465,4.136,1.738,5.467,3.863c6.629,10.581,11.867,15.799,21.125,35.273c-2.481-0.215-43.018-3.166-62.731-4.788
		c-21.403-1.762-42.851-2.693-64.345-2.585c-20.978,0.104-41.94,0.05-62.646,4.169c-7.708,1.532-15.356,3.177-21.568,8.449
		c-1.7,1.443-3.502,1.722-5.578,1.243c-9.378-2.16-18.798-2.258-28.207-0.297c-1.76,0.368-3.264,0.476-4.659-0.759
		c-7.822-6.919-17.714-8.031-27.382-9.531c-28.618-4.438-57.47-3.826-86.229-2.73c-29.233,1.111-70.245,3.78-99.022,7.854
		c14.111-26.016,21.543-34.49,23.837-37.749c0.844-1.326,2.104-2.015,3.694-2.286C86.909,248.989,114.03,245.018,139.692,245.421
		 M355.865,272.746c-25.479-1.122-47.299,5.717-63.809,12.71C311.165,280.4,328.719,276.624,355.865,272.746 M349.833,259.522
		c-12.792,0.382-39.666,3.895-64.783,20.924C308.464,269.858,325.908,265.009,349.833,259.522 M237.834,285.988
		c-20.728-9.482-42.819-12.413-65.426-12.653C194.545,275.673,216.185,280.548,237.834,285.988 M242.347,279.86
		c-19.392-12.748-41.05-18.347-63.935-20.004C200.67,263.49,221.647,271.173,242.347,279.86"/>
	<path fill="#5F5F13" d="M127.716,296.298c34.982,0,69.966,0.026,104.947-0.05c2.692-0.006,4.733,0.431,6.392,2.796
		c2.178,3.104,5.609,4.689,9.008,6.042c9.963,3.965,20.128,4.024,30.349,1.056c3.228-0.937,6.786-2.116,8.542-4.867
		c3.38-5.298,8.098-5.193,13.416-5.179c67.798,0.193,135.596,0.244,203.394,0.341c1.664,0.002,3.357-0.058,4.985,0.217
		c2.391,0.403,3.089,2.303,3.214,4.433c0.138,2.346-1.002,3.891-3.327,4.206c-1.803,0.244-3.656,0.161-5.486,0.16
		c-67.633-0.061-135.266-0.113-202.897-0.244c-3.137-0.006-5.755,0.271-7.935,2.94c-1.207,1.479-3.098,2.606-4.902,3.354
		c-18.436,7.629-36.27,7.631-52.801-4.886c-2.078-1.574-4.049-1.205-6.098-1.206c-67.966-0.052-135.932-0.053-203.896-0.062
		c-0.833,0-1.669-0.046-2.499,0.008c-3.321,0.221-5.769-0.986-5.757-4.568c0.013-3.717,2.701-4.394,5.906-4.39
		c35.149,0.043,70.297,0.027,105.446,0.027V296.298z"/>
	<path fill="#E0B175" d="M257.821,275.103c0,0-18.479-12.305-26.488-16.13c-24.971-11.924-51.309-17.813-78.806-19.788
		c-25.722-1.848-83.153,4.558-84.612,4.558c11.555-15.778,11.563-18.805,19.463-19.579
		C212.351,211.894,257.821,275.103,257.821,275.103"/>
	<path fill="#E0B175" d="M270.771,275.103c0,0,18.479-12.305,26.488-16.13c24.971-11.924,51.309-17.813,78.806-19.788
		c25.722-1.848,83.153,4.558,84.612,4.558c-11.555-15.778-11.563-18.805-19.463-19.579
		C316.241,211.894,270.771,275.103,270.771,275.103"/>
	<text transform="matrix(1 0 0 1 0 373.3188)"><tspan x="0" y="0" fill="#8D392D" font-family="'Amiri-Bold'" font-size="60" letter-spacing="-1">N</tspan><tspan x="42.659" y="0" fill="#8D392D" font-family="'Amiri-Bold'" font-size="60" letter-spacing="-1">o</tspan><tspan x="72.239" y="0" fill="#8D392D" font-family="'Amiri-Bold'" font-size="60">n</tspan><tspan x="107.458" y="0" fill="#8D392D" font-family="'Amiri-Bold'" font-size="60">n</tspan><tspan x="141.897" y="0" fill="#8D392D" font-family="'Amiri-Bold'" font-size="60">a</tspan><tspan x="168.837" y="0" fill="#8D392D" font-family="'Amiri-Bold'" font-size="60">s </tspan><tspan x="209.996" y="0" fill="#8D392D" font-family="'Amiri-Bold'" font-size="60" letter-spacing="-1">o</tspan><tspan x="239.516" y="0" fill="#8D392D" font-family="'Amiri-Bold'" font-size="60">f </tspan><tspan x="277.795" y="0" fill="#8D392D" font-family="'Amiri-Bold'" font-size="60">t</tspan><tspan x="297.895" y="0" fill="#8D392D" font-family="'Amiri-Bold'" font-size="60" letter-spacing="-1">h</tspan><tspan x="330.594" y="0" fill="#8D392D" font-family="'Amiri-Bold'" font-size="60">e </tspan><tspan x="375.053" y="0" fill="#8D392D" font-family="'Amiri-Bold'" font-size="60" letter-spacing="-4">W</tspan><tspan x="426.113" y="0" fill="#8D392D" font-family="'Amiri-Bold'" font-size="60" letter-spacing="-1">o</tspan><tspan x="455.692" y="0" fill="#8D392D" font-family="'Amiri-Bold'" font-size="60" letter-spacing="-1">r</tspan><tspan x="480.112" y="0" fill="#8D392D" font-family="'Amiri-Bold'" font-size="60" letter-spacing="-1">l</tspan><tspan x="496.491" y="0" fill="#8D392D" font-family="'Amiri-Bold'" font-size="60">d</tspan></text>
</g>
</svg>
