<svg width="736" height="457" viewBox="0 0 736 457" fill="none" xmlns="http://www.w3.org/2000/svg">
<path d="M12.0316 336.145C13.4503 336.145 14.9508 336.118 16.5332 336.063C18.1156 335.954 19.5343 335.818 20.7893 335.654C21.5532 337.182 22.8355 339.201 24.6362 341.711C26.4914 344.166 28.6194 346.922 31.0203 349.978C33.4757 352.979 36.0403 356.089 38.714 359.308C41.3877 362.528 43.9522 365.665 46.4076 368.721C46.5168 368.448 46.5713 367.984 46.5713 367.329C46.5713 366.62 46.5713 365.992 46.5713 365.447V350.469C46.5713 349.432 46.5168 348.204 46.4076 346.785C46.3531 345.312 46.2712 343.948 46.1621 342.693C46.053 341.438 45.8893 340.62 45.671 340.238C45.4528 339.747 44.8798 339.392 43.9522 339.174C43.0246 338.901 42.0697 338.737 41.0875 338.683C40.1599 338.573 39.5324 338.519 39.2051 338.519C39.1505 338.519 39.0686 338.137 38.9595 337.373C38.9049 336.555 38.9868 335.954 39.2051 335.572C41.0603 335.627 42.6699 335.736 44.0341 335.9C45.4528 336.063 47.0897 336.145 48.9449 336.145C50.691 336.145 52.4098 336.063 54.1013 335.9C55.7929 335.736 57.4298 335.627 59.0122 335.572C59.1213 335.791 59.1759 336.254 59.1759 336.964C59.2305 337.619 59.1213 338.164 58.8485 338.601C58.6302 338.601 58.03 338.628 57.0479 338.683C56.0657 338.737 55.0562 338.901 54.0195 339.174C53.0373 339.392 52.4371 339.801 52.2188 340.401C52.1097 340.783 51.9733 341.575 51.8096 342.775C51.7005 343.975 51.6186 345.285 51.5641 346.704C51.5095 348.068 51.4822 349.241 51.4822 350.223V377.397C51.4822 379.743 51.5095 381.68 51.5641 383.208C51.6732 384.736 51.755 386.536 51.8096 388.61C51.7005 388.719 51.3458 388.801 50.7456 388.855C50.1999 388.91 49.8725 388.937 49.7634 388.937C49.3814 388.937 48.9722 388.773 48.5357 388.446C48.1537 388.064 47.7445 387.6 47.308 387.055L14.7326 347.031V376.005C14.7326 377.424 14.8144 378.924 14.9781 380.507C15.1964 382.035 15.4147 383.099 15.6329 383.699C15.8512 384.19 16.4514 384.599 17.4336 384.927C18.4157 385.254 19.3979 385.499 20.3801 385.663C21.3623 385.772 21.9625 385.827 22.1807 385.827C22.4536 386.209 22.5627 386.754 22.5081 387.464C22.5081 388.119 22.4536 388.582 22.3444 388.855C20.762 388.746 19.1251 388.61 17.4336 388.446C15.742 388.282 14.0232 388.2 12.2772 388.2C10.4219 388.2 8.78499 388.282 7.36629 388.446C6.00217 388.61 4.39249 388.746 2.53728 388.855C2.31902 388.473 2.23717 387.9 2.29174 387.136C2.40087 386.318 2.48271 385.909 2.53728 385.909C2.86467 385.909 3.49217 385.827 4.41978 385.663C5.40195 385.499 6.32956 385.281 7.2026 385.008C8.13021 384.681 8.70314 384.272 8.9214 383.781C9.19423 383.18 9.41249 382.089 9.57618 380.507C9.79444 378.87 9.90357 377.287 9.90357 375.76V347.44C9.90357 346.349 9.79444 345.067 9.57618 343.593C9.35792 342.12 8.97597 341.002 8.43031 340.238C8.21205 339.856 7.72097 339.556 6.95705 339.337C6.24771 339.119 5.51108 338.955 4.74717 338.846C4.03782 338.683 3.51945 338.601 3.19206 338.601C3.08293 338.601 2.9738 338.382 2.86467 337.946C2.8101 337.509 2.78282 337.046 2.78282 336.555C2.83739 336.063 2.91923 335.763 3.02837 335.654C4.28336 335.709 5.62021 335.818 7.0389 335.982C8.51216 336.091 10.1764 336.145 12.0316 336.145ZM79.9467 352.76C83.6571 352.76 86.9037 353.552 89.6865 355.134C92.5239 356.662 94.7338 358.763 96.3162 361.436C97.8986 364.11 98.6898 367.138 98.6898 370.521C98.6898 373.85 97.8713 376.933 96.2344 379.77C94.5974 382.608 92.3875 384.872 89.6047 386.563C86.8219 388.255 83.6571 389.101 80.1104 389.101C76.3999 389.101 73.126 388.31 70.2886 386.727C67.4512 385.145 65.2414 382.989 63.659 380.261C62.0766 377.533 61.2854 374.505 61.2854 371.176C61.2854 367.793 62.1039 364.71 63.7408 361.927C65.4323 359.145 67.6695 356.935 70.4523 355.298C73.2897 353.606 76.4545 352.76 79.9467 352.76ZM79.0463 356.116C77.5731 356.116 76.3999 356.553 75.5269 357.426C74.7084 358.244 74.0809 359.335 73.6444 360.7C73.2624 362.064 72.9896 363.537 72.8259 365.119C72.7168 366.647 72.6622 368.148 72.6622 369.621C72.6622 371.367 72.8259 373.195 73.1533 375.105C73.4807 376.96 73.9718 378.706 74.6266 380.343C75.2813 381.925 76.1271 383.235 77.1638 384.272C78.2006 385.254 79.4556 385.745 80.9288 385.745C82.4021 385.745 83.548 385.336 84.3664 384.517C85.2395 383.644 85.8943 382.553 86.3308 381.243C86.7673 379.879 87.0401 378.433 87.1493 376.905C87.313 375.323 87.3948 373.823 87.3948 372.404C87.3948 370.603 87.2311 368.775 86.9037 366.92C86.5763 365.01 86.058 363.237 85.3486 361.6C84.6938 359.963 83.8481 358.653 82.8113 357.671C81.7746 356.635 80.5196 356.116 79.0463 356.116ZM131.556 352.842C134.612 352.842 136.903 353.552 138.431 354.97C140.014 356.334 141.078 358.435 141.623 361.273C142.169 364.055 142.442 367.548 142.442 371.749V376.905C142.442 378.597 142.469 380.07 142.524 381.325C142.578 382.58 142.769 383.617 143.097 384.435C143.26 384.763 143.67 385.036 144.324 385.254C145.034 385.472 145.77 385.636 146.534 385.745C147.353 385.8 147.926 385.854 148.253 385.909C148.471 386.182 148.553 386.673 148.499 387.382C148.499 388.091 148.417 388.582 148.253 388.855C146.725 388.692 144.925 388.555 142.851 388.446C140.832 388.337 138.977 388.282 137.285 388.282C135.594 388.282 133.902 388.337 132.211 388.446C130.519 388.555 128.882 388.692 127.3 388.855C127.136 388.582 127.027 388.091 126.973 387.382C126.973 386.673 127.082 386.182 127.3 385.909C127.846 385.854 128.61 385.745 129.592 385.581C130.629 385.363 131.256 384.981 131.474 384.435C131.747 383.726 131.911 382.826 131.965 381.734C132.02 380.643 132.047 379.388 132.047 377.969C132.047 377.806 132.047 377.642 132.047 377.478C132.047 377.26 132.047 377.069 132.047 376.905V370.603C132.047 368.693 131.884 366.893 131.556 365.201C131.283 363.455 130.765 362.064 130.001 361.027C129.237 359.936 128.146 359.39 126.727 359.39C125.69 359.39 124.626 359.663 123.535 360.209C122.444 360.7 121.516 361.3 120.752 362.009C120.043 362.664 119.688 363.264 119.688 363.81V376.905C119.688 378.379 119.715 379.797 119.77 381.162C119.825 382.526 120.016 383.617 120.343 384.435C120.507 384.763 120.861 385.036 121.407 385.254C122.007 385.472 122.635 385.636 123.289 385.745C123.999 385.8 124.517 385.854 124.845 385.909C125.063 386.182 125.145 386.673 125.09 387.382C125.09 388.091 125.008 388.582 124.845 388.855C123.317 388.692 121.625 388.555 119.77 388.446C117.915 388.337 116.141 388.282 114.45 388.282C112.758 388.282 110.903 388.337 108.884 388.446C106.92 388.555 105.147 388.692 103.564 388.855C103.401 388.582 103.291 388.091 103.237 387.382C103.237 386.673 103.346 386.182 103.564 385.909C103.946 385.854 104.492 385.8 105.201 385.745C105.965 385.636 106.702 385.472 107.411 385.254C108.12 385.036 108.53 384.763 108.639 384.435C108.966 383.617 109.157 382.58 109.212 381.325C109.266 380.07 109.294 378.597 109.294 376.905V367.739C109.294 367.466 109.266 366.893 109.212 366.02C109.212 365.092 109.157 364.164 109.048 363.237C108.939 362.255 108.775 361.573 108.557 361.191C108.339 360.754 107.848 360.427 107.084 360.209C106.374 359.99 105.665 359.827 104.956 359.717C104.246 359.608 103.782 359.554 103.564 359.554C103.51 359.499 103.455 359.281 103.401 358.899C103.346 358.462 103.346 358.053 103.401 357.671C103.455 357.289 103.537 357.098 103.646 357.098C105.665 356.935 107.657 356.607 109.621 356.116C111.64 355.625 113.495 355.079 115.187 354.479C116.878 353.879 118.215 353.333 119.197 352.842C119.47 352.842 119.77 353.033 120.097 353.415C120.425 353.743 120.589 354.015 120.589 354.234C120.534 354.452 120.425 354.943 120.261 355.707C120.152 356.416 120.043 357.098 119.934 357.753C119.825 358.408 119.77 358.763 119.77 358.817C119.77 359.09 119.797 359.254 119.852 359.308C119.961 359.308 120.152 359.172 120.425 358.899C121.189 358.026 122.198 357.126 123.453 356.198C124.763 355.27 126.127 354.479 127.546 353.824C129.019 353.17 130.356 352.842 131.556 352.842ZM179.194 352.842C182.25 352.842 184.541 353.552 186.069 354.97C187.652 356.334 188.716 358.435 189.261 361.273C189.807 364.055 190.08 367.548 190.08 371.749V376.905C190.08 378.597 190.107 380.07 190.162 381.325C190.216 382.58 190.407 383.617 190.735 384.435C190.898 384.763 191.307 385.036 191.962 385.254C192.672 385.472 193.408 385.636 194.172 385.745C194.991 385.8 195.564 385.854 195.891 385.909C196.109 386.182 196.191 386.673 196.137 387.382C196.137 388.091 196.055 388.582 195.891 388.855C194.363 388.692 192.562 388.555 190.489 388.446C188.47 388.337 186.615 388.282 184.923 388.282C183.232 388.282 181.54 388.337 179.849 388.446C178.157 388.555 176.52 388.692 174.938 388.855C174.774 388.582 174.665 388.091 174.611 387.382C174.611 386.673 174.72 386.182 174.938 385.909C175.484 385.854 176.248 385.745 177.23 385.581C178.266 385.363 178.894 384.981 179.112 384.435C179.385 383.726 179.549 382.826 179.603 381.734C179.658 380.643 179.685 379.388 179.685 377.969C179.685 377.806 179.685 377.642 179.685 377.478C179.685 377.26 179.685 377.069 179.685 376.905V370.603C179.685 368.693 179.521 366.893 179.194 365.201C178.921 363.455 178.403 362.064 177.639 361.027C176.875 359.936 175.784 359.39 174.365 359.39C173.328 359.39 172.264 359.663 171.173 360.209C170.082 360.7 169.154 361.3 168.39 362.009C167.681 362.664 167.326 363.264 167.326 363.81V376.905C167.326 378.379 167.353 379.797 167.408 381.162C167.463 382.526 167.654 383.617 167.981 384.435C168.145 384.763 168.499 385.036 169.045 385.254C169.645 385.472 170.273 385.636 170.927 385.745C171.637 385.8 172.155 385.854 172.483 385.909C172.701 386.182 172.783 386.673 172.728 387.382C172.728 388.091 172.646 388.582 172.483 388.855C170.955 388.692 169.263 388.555 167.408 388.446C165.553 388.337 163.779 388.282 162.088 388.282C160.396 388.282 158.541 388.337 156.522 388.446C154.558 388.555 152.785 388.692 151.202 388.855C151.038 388.582 150.929 388.091 150.875 387.382C150.875 386.673 150.984 386.182 151.202 385.909C151.584 385.854 152.13 385.8 152.839 385.745C153.603 385.636 154.34 385.472 155.049 385.254C155.758 385.036 156.168 384.763 156.277 384.435C156.604 383.617 156.795 382.58 156.85 381.325C156.904 380.07 156.931 378.597 156.931 376.905V367.739C156.931 367.466 156.904 366.893 156.85 366.02C156.85 365.092 156.795 364.164 156.686 363.237C156.577 362.255 156.413 361.573 156.195 361.191C155.977 360.754 155.485 360.427 154.722 360.209C154.012 359.99 153.303 359.827 152.594 359.717C151.884 359.608 151.42 359.554 151.202 359.554C151.148 359.499 151.093 359.281 151.038 358.899C150.984 358.462 150.984 358.053 151.038 357.671C151.093 357.289 151.175 357.098 151.284 357.098C153.303 356.935 155.295 356.607 157.259 356.116C159.278 355.625 161.133 355.079 162.824 354.479C164.516 353.879 165.853 353.333 166.835 352.842C167.108 352.842 167.408 353.033 167.735 353.415C168.063 353.743 168.226 354.015 168.226 354.234C168.172 354.452 168.063 354.943 167.899 355.707C167.79 356.416 167.681 357.098 167.572 357.753C167.463 358.408 167.408 358.763 167.408 358.817C167.408 359.09 167.435 359.254 167.49 359.308C167.599 359.308 167.79 359.172 168.063 358.899C168.827 358.026 169.836 357.126 171.091 356.198C172.401 355.27 173.765 354.479 175.183 353.824C176.657 353.17 177.994 352.842 179.194 352.842ZM216.274 352.679C218.511 352.679 220.53 353.197 222.33 354.234C224.131 355.27 225.577 356.716 226.668 358.572C227.76 360.372 228.305 362.473 228.305 364.874V379.852C228.305 380.889 228.469 381.707 228.796 382.307C229.178 382.853 229.642 383.126 230.188 383.126C230.788 383.126 231.279 383.017 231.661 382.798C232.043 382.526 232.316 382.362 232.479 382.307C232.861 382.471 233.052 382.908 233.052 383.617C233.052 384.053 232.943 384.463 232.725 384.845C232.343 385.172 231.716 385.69 230.842 386.4C229.969 387.055 228.987 387.655 227.896 388.2C226.805 388.746 225.686 389.019 224.54 389.019C223.231 389.019 221.976 388.582 220.775 387.709C219.629 386.836 218.865 385.936 218.483 385.008C218.265 385.227 217.583 385.69 216.437 386.4C215.346 387.055 214.146 387.682 212.836 388.282C211.526 388.883 210.381 389.183 209.398 389.183C207.379 389.183 205.579 388.719 203.996 387.791C202.414 386.809 201.159 385.581 200.231 384.108C199.358 382.58 198.922 381.025 198.922 379.443C198.922 377.86 199.358 376.496 200.231 375.35C201.104 374.15 202.059 373.386 203.096 373.059C204.133 372.731 205.552 372.213 207.352 371.504C209.153 370.794 211.008 370.058 212.918 369.294C214.882 368.53 216.546 367.902 217.911 367.411V363.646C217.911 361.627 217.474 359.799 216.601 358.162C215.728 356.525 214.582 355.707 213.163 355.707C211.636 355.707 210.572 356.389 209.971 357.753C209.426 359.063 208.935 360.618 208.498 362.418C208.28 363.291 207.843 364.11 207.189 364.874C206.534 365.583 205.497 365.938 204.078 365.938C203.042 365.938 202.087 365.583 201.214 364.874C200.341 364.11 199.904 363.182 199.904 362.091C199.904 361.545 200.013 361 200.231 360.454C200.45 359.908 200.723 359.363 201.05 358.817C201.323 358.544 201.923 358.08 202.851 357.426C203.833 356.771 205.033 356.089 206.452 355.38C207.871 354.616 209.426 353.988 211.117 353.497C212.809 352.951 214.528 352.679 216.274 352.679ZM214.637 383.535C215.619 383.535 216.41 383.317 217.01 382.88C217.61 382.444 217.911 382.116 217.911 381.898V370.685C217.092 371.067 216.192 371.449 215.21 371.831C214.282 372.213 213.409 372.677 212.59 373.222C211.499 373.932 210.735 374.805 210.299 375.841C209.862 376.824 209.671 377.751 209.726 378.624C209.78 380.316 210.353 381.571 211.445 382.389C212.536 383.153 213.6 383.535 214.637 383.535ZM252.038 352.679C253.948 352.679 255.585 352.87 256.949 353.251C258.313 353.633 259.65 353.961 260.959 354.234C261.178 355.107 261.423 356.253 261.696 357.671C261.969 359.035 262.187 360.318 262.351 361.518C262.569 362.719 262.678 363.564 262.678 364.055C262.678 364.219 262.487 364.355 262.105 364.465C261.778 364.574 261.478 364.628 261.205 364.628C260.877 364.628 260.605 364.574 260.386 364.465C260.168 364.301 259.923 364.137 259.65 363.974C259.377 362.773 258.94 361.573 258.34 360.372C257.74 359.117 256.867 358.08 255.721 357.262C254.575 356.389 253.075 355.952 251.219 355.952C249.91 355.952 248.819 356.307 247.945 357.016C247.072 357.726 246.636 358.79 246.636 360.209C246.636 361.573 247.072 362.691 247.945 363.564C248.819 364.383 249.883 365.065 251.138 365.61C252.447 366.156 253.675 366.729 254.821 367.329C256.239 367.984 257.603 368.721 258.913 369.539C260.223 370.358 261.287 371.422 262.105 372.731C262.978 374.041 263.415 375.841 263.415 378.133C263.415 380.807 262.678 382.962 261.205 384.599C259.786 386.182 257.876 387.355 255.475 388.119C253.075 388.828 250.483 389.183 247.7 389.183C245.954 389.183 244.208 388.964 242.462 388.528C240.716 388.037 239.351 387.682 238.369 387.464C238.315 387.027 238.233 386.291 238.124 385.254C238.069 384.217 237.987 383.126 237.878 381.98C237.824 380.78 237.769 379.716 237.715 378.788C237.715 377.86 237.715 377.287 237.715 377.069C237.715 376.796 237.851 376.66 238.124 376.66C238.451 376.605 238.724 376.578 238.942 376.578C239.215 376.578 239.542 376.633 239.924 376.742C240.306 376.851 240.552 377.042 240.661 377.315C241.043 379.606 241.725 381.38 242.707 382.635C243.689 383.89 244.781 384.763 245.981 385.254C247.182 385.745 248.3 385.991 249.337 385.991C250.756 385.991 251.847 385.554 252.611 384.681C253.429 383.753 253.839 382.744 253.839 381.653C253.839 380.288 253.402 379.224 252.529 378.461C251.71 377.642 250.674 376.96 249.419 376.414C248.164 375.814 246.909 375.187 245.654 374.532C243.307 373.277 241.289 371.831 239.597 370.194C237.96 368.557 237.142 366.402 237.142 363.728C237.142 361.709 237.605 360.018 238.533 358.653C239.515 357.235 240.743 356.089 242.216 355.216C243.744 354.343 245.354 353.715 247.045 353.333C248.791 352.897 250.455 352.679 252.038 352.679ZM311.422 352.76C315.133 352.76 318.379 353.552 321.162 355.134C323.999 356.662 326.209 358.763 327.792 361.436C329.374 364.11 330.165 367.138 330.165 370.521C330.165 373.85 329.347 376.933 327.71 379.77C326.073 382.608 323.863 384.872 321.08 386.563C318.297 388.255 315.133 389.101 311.586 389.101C307.875 389.101 304.602 388.31 301.764 386.727C298.927 385.145 296.717 382.989 295.134 380.261C293.552 377.533 292.761 374.505 292.761 371.176C292.761 367.793 293.579 364.71 295.216 361.927C296.908 359.145 299.145 356.935 301.928 355.298C304.765 353.606 307.93 352.76 311.422 352.76ZM310.522 356.116C309.049 356.116 307.875 356.553 307.002 357.426C306.184 358.244 305.556 359.335 305.12 360.7C304.738 362.064 304.465 363.537 304.301 365.119C304.192 366.647 304.138 368.148 304.138 369.621C304.138 371.367 304.301 373.195 304.629 375.105C304.956 376.96 305.447 378.706 306.102 380.343C306.757 381.925 307.603 383.235 308.639 384.272C309.676 385.254 310.931 385.745 312.404 385.745C313.878 385.745 315.023 385.336 315.842 384.517C316.715 383.644 317.37 382.553 317.806 381.243C318.243 379.879 318.516 378.433 318.625 376.905C318.788 375.323 318.87 373.823 318.87 372.404C318.87 370.603 318.707 368.775 318.379 366.92C318.052 365.01 317.533 363.237 316.824 361.6C316.169 359.963 315.324 358.653 314.287 357.671C313.25 356.635 311.995 356.116 310.522 356.116ZM357.139 332.708C358.394 332.708 359.403 332.817 360.167 333.035C360.985 333.199 361.668 333.362 362.213 333.526C362.923 333.908 363.605 334.399 364.259 334.999C364.969 335.545 365.323 336.282 365.323 337.209C365.323 338.519 364.969 339.774 364.259 340.974C363.605 342.12 362.622 342.693 361.313 342.693C360.112 342.693 359.103 342.338 358.284 341.629C357.521 340.92 356.757 340.265 355.993 339.665C355.065 338.901 354.001 338.519 352.801 338.519C352.146 338.519 351.573 339.146 351.082 340.401C350.645 341.602 350.427 343.157 350.427 345.067C350.427 346.922 350.454 348.832 350.509 350.796C350.618 352.706 350.7 354.288 350.754 355.543H360.085C360.249 355.543 360.358 355.68 360.413 355.952C360.522 356.171 360.576 356.389 360.576 356.607C360.576 356.989 360.358 357.48 359.921 358.08C359.539 358.626 359.13 359.035 358.694 359.308H351V376.905C351 377.069 351 377.26 351 377.478C351 377.642 351 377.806 351 377.969C351 379.388 351.027 380.643 351.082 381.734C351.136 382.826 351.3 383.726 351.573 384.435C351.737 384.763 352.146 385.036 352.801 385.254C353.51 385.472 354.247 385.636 355.011 385.745C355.829 385.8 356.402 385.854 356.729 385.909C356.948 386.182 357.029 386.673 356.975 387.382C356.975 388.091 356.893 388.582 356.729 388.855C355.202 388.692 353.401 388.555 351.327 388.446C349.309 388.337 347.453 388.282 345.762 388.282C344.07 388.282 342.215 388.337 340.196 388.446C338.177 388.555 336.377 388.692 334.794 388.855C334.63 388.582 334.521 388.091 334.467 387.382C334.467 386.673 334.576 386.182 334.794 385.909C335.176 385.854 335.749 385.8 336.513 385.745C337.277 385.636 338.014 385.472 338.723 385.254C339.432 385.036 339.841 384.763 339.951 384.435C340.278 383.617 340.469 382.58 340.524 381.325C340.578 380.07 340.605 378.597 340.605 376.905V359.308H334.876C334.658 359.199 334.521 359.035 334.467 358.817C334.467 358.599 334.467 358.408 334.467 358.244C334.903 357.644 335.313 357.153 335.695 356.771C336.131 356.334 336.595 355.925 337.086 355.543H340.605V353.088C340.605 350.36 341.178 347.768 342.324 345.312C343.47 342.857 344.916 340.701 346.662 338.846C348.408 336.936 350.209 335.436 352.064 334.345C353.974 333.253 355.665 332.708 357.139 332.708ZM401.803 354.315H410.888C411.051 354.315 411.16 354.452 411.215 354.725C411.324 354.943 411.379 355.161 411.379 355.38C411.379 355.761 411.188 356.253 410.806 356.853C410.424 357.398 410.015 357.808 409.578 358.08H401.803V377.888C401.803 380.016 402.157 381.571 402.867 382.553C403.576 383.481 404.667 383.944 406.14 383.944C407.068 383.944 407.968 383.672 408.841 383.126C409.769 382.526 410.287 382.171 410.397 382.062C410.506 382.116 410.615 382.28 410.724 382.553C410.833 382.771 410.888 382.989 410.888 383.208C410.888 383.426 410.806 383.699 410.642 384.026C410.533 384.354 410.424 384.572 410.315 384.681C410.096 384.954 409.578 385.445 408.76 386.154C407.941 386.864 406.932 387.546 405.731 388.2C404.531 388.801 403.221 389.101 401.803 389.101C400.166 389.101 398.529 388.746 396.892 388.037C395.309 387.327 394 386.127 392.963 384.435C391.926 382.689 391.408 380.343 391.408 377.397V358.08H385.76C385.542 357.971 385.406 357.808 385.351 357.589C385.351 357.371 385.351 357.18 385.351 357.016C385.788 356.416 386.197 355.925 386.579 355.543C386.961 355.107 387.397 354.697 387.888 354.315H391.408V350.059C392.936 348.804 394.409 347.386 395.828 345.803C397.301 344.221 398.638 342.83 399.838 341.629C400.275 341.356 400.684 341.22 401.066 341.22C401.502 341.22 401.748 341.356 401.803 341.629V354.315ZM441.499 352.842C444.555 352.842 446.847 353.552 448.375 354.97C449.957 356.334 451.021 358.435 451.567 361.273C452.112 364.055 452.385 367.548 452.385 371.749V376.905C452.385 377.069 452.385 377.26 452.385 377.478C452.385 377.642 452.385 377.806 452.385 377.969C452.385 379.388 452.412 380.643 452.467 381.734C452.521 382.826 452.685 383.726 452.958 384.435C453.122 384.763 453.531 385.036 454.186 385.254C454.895 385.472 455.632 385.636 456.396 385.745C457.214 385.8 457.787 385.854 458.114 385.909C458.333 386.182 458.414 386.673 458.36 387.382C458.36 388.091 458.278 388.582 458.114 388.855C456.587 388.692 454.786 388.555 452.712 388.446C450.694 388.337 448.838 388.282 447.147 388.282C445.455 388.282 443.764 388.337 442.072 388.446C440.381 388.555 438.744 388.692 437.161 388.855C436.998 388.582 436.889 388.091 436.834 387.382C436.834 386.673 436.943 386.182 437.161 385.909C437.707 385.854 438.471 385.745 439.453 385.581C440.49 385.363 441.117 384.981 441.336 384.435C441.663 383.617 441.854 382.58 441.909 381.325C441.963 380.07 441.99 378.597 441.99 376.905V370.603C441.99 368.693 441.827 366.893 441.499 365.201C441.226 363.455 440.681 362.064 439.862 361.027C439.098 359.936 438.007 359.39 436.588 359.39C435.552 359.39 434.488 359.663 433.396 360.209C432.305 360.7 431.377 361.3 430.614 362.009C429.904 362.664 429.55 363.264 429.55 363.81V376.905C429.55 378.379 429.577 379.797 429.631 381.162C429.686 382.526 429.877 383.617 430.204 384.435C430.368 384.763 430.75 385.036 431.35 385.254C431.95 385.472 432.578 385.636 433.233 385.745C433.942 385.8 434.46 385.854 434.788 385.909C435.006 386.182 435.088 386.673 435.033 387.382C435.033 388.091 434.951 388.582 434.788 388.855C433.26 388.692 431.568 388.555 429.713 388.446C427.858 388.337 426.085 388.282 424.393 388.282C422.702 388.282 420.846 388.337 418.827 388.446C416.809 388.555 415.008 388.692 413.426 388.855C413.262 388.582 413.153 388.091 413.098 387.382C413.098 386.673 413.207 386.182 413.426 385.909C413.807 385.854 414.38 385.8 415.144 385.745C415.908 385.636 416.645 385.472 417.354 385.254C418.064 385.036 418.473 384.763 418.582 384.435C418.855 383.726 419.018 382.826 419.073 381.734C419.128 380.643 419.155 379.388 419.155 377.969C419.155 377.806 419.155 377.642 419.155 377.478C419.155 377.26 419.155 377.069 419.155 376.905V343.921C419.155 343.211 419.128 342.584 419.073 342.038C419.018 341.438 418.855 340.783 418.582 340.074C418.473 339.747 418.091 339.474 417.436 339.256C416.781 339.037 416.099 338.901 415.39 338.846C414.681 338.737 414.162 338.683 413.835 338.683C413.671 338.683 413.562 338.301 413.507 337.537C413.507 336.718 413.617 336.227 413.835 336.063C416.836 335.791 419.455 335.409 421.692 334.918C423.984 334.426 425.785 333.99 427.094 333.608C428.458 333.172 429.168 332.953 429.222 332.953C429.495 333.008 429.741 333.199 429.959 333.526C430.232 333.854 430.395 334.126 430.45 334.345C430.45 334.345 430.368 334.808 430.204 335.736C430.095 336.664 429.959 337.755 429.795 339.01C429.631 340.265 429.55 341.438 429.55 342.529V358.817C429.55 359.09 429.577 359.254 429.631 359.308C429.741 359.308 429.931 359.172 430.204 358.899C430.968 358.026 432.005 357.126 433.315 356.198C434.624 355.27 436.015 354.479 437.489 353.824C438.962 353.17 440.299 352.842 441.499 352.842ZM471.647 369.212C471.647 371.995 472.056 374.286 472.874 376.087C473.693 377.833 474.702 379.17 475.903 380.098C477.103 381.025 478.331 381.68 479.586 382.062C480.896 382.389 481.987 382.553 482.86 382.553C485.206 382.553 487.061 382.116 488.426 381.243C489.79 380.316 490.908 379.415 491.781 378.542C492.054 378.597 492.272 378.788 492.436 379.115C492.654 379.443 492.763 379.743 492.763 380.016C492.763 380.725 492.682 381.216 492.518 381.489C492.027 382.198 491.127 383.18 489.817 384.435C488.507 385.69 486.843 386.809 484.824 387.791C482.86 388.773 480.595 389.264 478.031 389.264C475.084 389.264 472.329 388.61 469.764 387.3C467.2 385.936 465.126 384.026 463.544 381.571C462.016 379.061 461.252 376.06 461.252 372.568C461.252 370.058 461.743 367.629 462.725 365.283C463.708 362.882 465.017 360.754 466.654 358.899C468.346 356.989 470.255 355.489 472.383 354.397C474.511 353.306 476.721 352.76 479.013 352.76C481.632 352.76 483.842 353.17 485.643 353.988C487.443 354.807 488.862 355.843 489.899 357.098C490.99 358.353 491.781 359.69 492.272 361.109C492.763 362.473 493.009 363.728 493.009 364.874C493.009 365.747 492.791 366.511 492.354 367.166C491.972 367.82 491.481 368.175 490.881 368.23C489.08 368.393 487.061 368.557 484.824 368.721C482.587 368.83 480.323 368.939 478.031 369.048C475.739 369.103 473.611 369.157 471.647 369.212ZM471.729 366.02C471.892 366.02 472.411 366.02 473.284 366.02C474.211 365.965 475.248 365.911 476.394 365.856C477.594 365.747 478.713 365.665 479.75 365.61C480.786 365.501 481.55 365.419 482.041 365.365C482.532 365.31 482.833 365.147 482.942 364.874C483.051 364.546 483.105 364.274 483.105 364.055C483.105 362.8 482.942 361.573 482.614 360.372C482.287 359.172 481.769 358.162 481.059 357.344C480.35 356.525 479.395 356.116 478.195 356.116C476.994 356.116 475.985 356.498 475.166 357.262C474.348 358.026 473.666 358.954 473.12 360.045C472.629 361.136 472.274 362.255 472.056 363.401C471.838 364.492 471.729 365.365 471.729 366.02ZM530.594 336.145C532.286 336.145 534.196 336.118 536.324 336.063C538.506 335.954 540.362 335.818 541.889 335.654C542.053 335.872 542.135 336.364 542.135 337.127C542.189 337.837 542.108 338.328 541.889 338.601C541.562 338.601 540.989 338.655 540.171 338.764C539.407 338.819 538.697 339.01 538.043 339.337C537.388 339.61 537.06 340.074 537.06 340.729C537.06 341.384 537.251 342.257 537.633 343.348C538.07 344.439 538.506 345.558 538.943 346.704C539.816 349.159 540.716 351.669 541.644 354.234C542.571 356.744 543.417 359.09 544.181 361.273C544.945 363.401 545.572 365.147 546.064 366.511C546.555 367.82 546.8 368.475 546.8 368.475C546.8 368.475 547.018 367.875 547.455 366.674C547.892 365.474 548.437 363.892 549.092 361.927C549.801 359.963 550.565 357.835 551.384 355.543C552.202 353.197 553.021 350.905 553.839 348.668C554.658 346.376 555.367 344.357 555.967 342.611C556.622 340.811 557.113 339.474 557.44 338.601C557.713 337.837 558.068 337.155 558.504 336.555C558.996 335.954 559.459 335.654 559.896 335.654C560.278 335.654 560.605 336.063 560.878 336.882C561.915 339.556 563.033 342.448 564.234 345.558C565.489 348.668 566.716 351.751 567.917 354.807C569.117 357.862 570.209 360.645 571.191 363.155C572.228 365.665 573.046 367.684 573.646 369.212C574.246 370.685 574.547 371.422 574.547 371.422C574.547 371.422 574.71 370.903 575.038 369.867C575.365 368.775 575.802 367.384 576.347 365.692C576.893 363.946 577.466 362.091 578.066 360.127C578.721 358.108 579.348 356.171 579.949 354.315C580.549 352.46 581.067 350.878 581.504 349.568C581.94 348.204 582.213 347.304 582.322 346.867C582.65 345.831 583.004 344.739 583.386 343.593C583.768 342.393 583.959 341.356 583.959 340.483C583.959 339.992 583.495 339.61 582.568 339.337C581.695 339.065 580.767 338.874 579.785 338.764C578.803 338.655 578.121 338.601 577.739 338.601C577.52 338.328 577.411 337.837 577.411 337.127C577.466 336.364 577.575 335.872 577.739 335.654C579.648 335.818 581.231 335.954 582.486 336.063C583.795 336.118 585.378 336.145 587.233 336.145C588.979 336.145 590.48 336.091 591.735 335.982C593.044 335.818 594.517 335.709 596.154 335.654C596.318 335.872 596.4 336.364 596.4 337.127C596.454 337.837 596.373 338.328 596.154 338.601C595.827 338.601 595.281 338.628 594.517 338.683C593.754 338.737 592.99 338.874 592.226 339.092C591.462 339.256 590.916 339.556 590.589 339.992C589.989 340.811 589.388 341.766 588.788 342.857C588.242 343.948 587.751 345.203 587.315 346.622C586.06 350.387 584.914 353.852 583.877 357.016C582.84 360.127 581.804 363.155 580.767 366.102C579.785 369.048 578.748 372.076 577.657 375.187C576.62 378.242 575.474 381.625 574.219 385.336C573.837 386.318 573.319 387.246 572.664 388.119C572.064 388.992 571.518 389.428 571.027 389.428C570.645 389.428 570.345 389.292 570.127 389.019C569.909 388.801 569.69 388.555 569.472 388.282L556.295 355.134C556.295 355.134 556.076 355.789 555.64 357.098C555.203 358.408 554.603 360.154 553.839 362.337C553.13 364.519 552.311 366.92 551.384 369.539C550.511 372.158 549.61 374.832 548.683 377.56C547.755 380.234 546.909 382.717 546.145 385.008C546.036 385.281 545.818 385.8 545.491 386.563C545.163 387.273 544.809 387.928 544.427 388.528C544.045 389.128 543.69 389.428 543.363 389.428C542.981 389.428 542.681 389.292 542.462 389.019C542.244 388.801 542.026 388.555 541.807 388.282L527.402 347.768C527.02 346.567 526.557 345.394 526.011 344.248C525.465 343.048 525.001 342.038 524.619 341.22C524.292 340.511 523.746 339.992 522.983 339.665C522.273 339.283 521.564 339.01 520.854 338.846C520.145 338.683 519.599 338.601 519.218 338.601C518.999 338.328 518.917 337.837 518.972 337.127C518.972 336.364 519.054 335.872 519.218 335.654C520.8 335.818 522.655 335.954 524.783 336.063C526.966 336.118 528.903 336.145 530.594 336.145ZM610.918 352.76C614.628 352.76 617.875 353.552 620.658 355.134C623.495 356.662 625.705 358.763 627.287 361.436C628.87 364.11 629.661 367.138 629.661 370.521C629.661 373.85 628.842 376.933 627.205 379.77C625.568 382.608 623.359 384.872 620.576 386.563C617.793 388.255 614.628 389.101 611.081 389.101C607.371 389.101 604.097 388.31 601.26 386.727C598.422 385.145 596.212 382.989 594.63 380.261C593.048 377.533 592.256 374.505 592.256 371.176C592.256 367.793 593.075 364.71 594.712 361.927C596.403 359.145 598.641 356.935 601.423 355.298C604.261 353.606 607.426 352.76 610.918 352.76ZM610.017 356.116C608.544 356.116 607.371 356.553 606.498 357.426C605.679 358.244 605.052 359.335 604.615 360.7C604.233 362.064 603.961 363.537 603.797 365.119C603.688 366.647 603.633 368.148 603.633 369.621C603.633 371.367 603.797 373.195 604.124 375.105C604.452 376.96 604.943 378.706 605.598 380.343C606.252 381.925 607.098 383.235 608.135 384.272C609.172 385.254 610.427 385.745 611.9 385.745C613.373 385.745 614.519 385.336 615.337 384.517C616.21 383.644 616.865 382.553 617.302 381.243C617.738 379.879 618.011 378.433 618.12 376.905C618.284 375.323 618.366 373.823 618.366 372.404C618.366 370.603 618.202 368.775 617.875 366.92C617.547 365.01 617.029 363.237 616.32 361.6C615.665 359.963 614.819 358.653 613.782 357.671C612.746 356.635 611.491 356.116 610.017 356.116ZM661.218 352.76C662.254 352.76 663.209 352.87 664.082 353.088C664.955 353.306 665.665 353.661 666.21 354.152C666.374 354.37 666.565 354.861 666.783 355.625C667.001 356.389 667.111 357.207 667.111 358.08C667.111 358.954 666.892 359.881 666.456 360.863C666.074 361.845 665.528 362.691 664.819 363.401C664.11 364.055 663.291 364.383 662.363 364.383C661.654 364.383 661.027 364.164 660.481 363.728C659.935 363.237 659.417 362.8 658.926 362.418C658.489 361.982 658.053 361.6 657.616 361.273C657.234 360.891 656.689 360.7 655.979 360.7C654.888 360.7 653.933 361.136 653.115 362.009C652.351 362.828 651.751 363.755 651.314 364.792C650.877 365.774 650.659 366.565 650.659 367.166V376.905C650.659 378.379 650.686 379.797 650.741 381.162C650.796 382.526 650.987 383.617 651.314 384.435C651.478 384.763 651.969 385.036 652.787 385.254C653.606 385.472 654.451 385.636 655.325 385.745C656.252 385.8 656.88 385.854 657.207 385.909C657.425 386.182 657.507 386.673 657.453 387.382C657.453 388.091 657.371 388.582 657.207 388.855C655.679 388.692 653.742 388.555 651.396 388.446C649.104 388.337 647.112 388.282 645.421 388.282C643.729 388.282 641.874 388.337 639.855 388.446C637.891 388.555 636.118 388.692 634.535 388.855C634.372 388.582 634.262 388.091 634.208 387.382C634.208 386.673 634.317 386.182 634.535 385.909C634.917 385.854 635.463 385.8 636.172 385.745C636.936 385.636 637.673 385.472 638.382 385.254C639.091 385.036 639.501 384.763 639.61 384.435C639.937 383.617 640.128 382.58 640.183 381.325C640.237 380.07 640.265 378.597 640.265 376.905V367.739C640.265 367.466 640.237 366.893 640.183 366.02C640.183 365.092 640.128 364.164 640.019 363.237C639.91 362.255 639.746 361.573 639.528 361.191C639.31 360.754 638.819 360.427 638.055 360.209C637.345 359.99 636.636 359.827 635.927 359.717C635.217 359.608 634.753 359.554 634.535 359.554C634.481 359.499 634.426 359.281 634.372 358.899C634.317 358.462 634.317 358.053 634.372 357.671C634.426 357.289 634.508 357.098 634.617 357.098C636.636 356.935 638.628 356.607 640.592 356.116C642.611 355.625 644.466 355.079 646.158 354.479C647.849 353.879 649.186 353.333 650.168 352.842C650.441 352.897 650.741 353.115 651.068 353.497C651.396 353.879 651.56 354.125 651.56 354.234C651.505 354.452 651.396 354.998 651.232 355.871C651.123 356.744 651.014 357.644 650.905 358.572C650.796 359.499 650.741 360.154 650.741 360.536C650.741 360.754 650.796 360.863 650.905 360.863C651.068 360.863 651.178 360.836 651.232 360.781C651.887 359.636 652.651 358.435 653.524 357.18C654.451 355.925 655.543 354.888 656.798 354.07C658.053 353.197 659.526 352.76 661.218 352.76ZM674.369 343.921C674.369 343.211 674.342 342.584 674.288 342.038C674.233 341.438 674.069 340.783 673.796 340.074C673.687 339.747 673.305 339.474 672.651 339.256C671.996 339.037 671.314 338.901 670.604 338.846C669.895 338.737 669.377 338.683 669.049 338.683C668.886 338.683 668.776 338.301 668.722 337.537C668.722 336.718 668.831 336.227 669.049 336.063C672.05 335.791 674.67 335.409 676.907 334.918C679.198 334.426 680.999 333.99 682.309 333.608C683.673 333.172 684.382 332.953 684.437 332.953C684.71 333.008 684.955 333.199 685.173 333.526C685.446 333.854 685.61 334.126 685.664 334.345C685.664 334.345 685.583 334.808 685.419 335.736C685.31 336.664 685.173 337.755 685.01 339.01C684.846 340.265 684.764 341.438 684.764 342.529V376.905C684.764 378.597 684.791 380.07 684.846 381.325C684.9 382.58 685.091 383.617 685.419 384.435C685.583 384.763 685.992 385.036 686.647 385.254C687.356 385.472 688.093 385.636 688.856 385.745C689.675 385.8 690.248 385.854 690.575 385.909C690.794 386.182 690.875 386.673 690.821 387.382C690.821 388.091 690.739 388.582 690.575 388.855C689.047 388.692 687.247 388.555 685.173 388.446C683.154 388.337 681.299 388.282 679.608 388.282C677.916 388.282 676.061 388.337 674.042 388.446C672.023 388.555 670.222 388.692 668.64 388.855C668.476 388.582 668.367 388.091 668.313 387.382C668.313 386.673 668.422 386.182 668.64 385.909C669.022 385.854 669.595 385.8 670.359 385.745C671.123 385.636 671.859 385.472 672.569 385.254C673.278 385.036 673.687 384.763 673.796 384.435C674.069 383.726 674.233 382.826 674.288 381.734C674.342 380.643 674.369 379.388 674.369 377.969C674.369 377.806 674.369 377.642 674.369 377.478C674.369 377.26 674.369 377.069 674.369 376.905V343.921ZM714.88 352.842C715.753 352.842 716.407 352.87 716.844 352.924C717.335 352.924 717.744 352.951 718.072 353.006C718.235 353.006 718.344 352.788 718.399 352.351C718.454 351.915 718.481 351.533 718.481 351.205V343.921C718.481 343.157 718.454 342.502 718.399 341.956C718.344 341.411 718.181 340.783 717.908 340.074C717.799 339.747 717.417 339.474 716.762 339.256C716.107 339.037 715.425 338.901 714.716 338.846C714.007 338.737 713.488 338.683 713.161 338.683C712.997 338.683 712.888 338.301 712.833 337.537C712.833 336.718 712.943 336.227 713.161 336.063C716.162 335.791 718.781 335.409 721.018 334.918C723.31 334.426 725.111 333.99 726.42 333.608C727.784 333.172 728.494 332.953 728.548 332.953C728.821 333.008 729.067 333.199 729.285 333.526C729.558 333.854 729.721 334.126 729.776 334.345C729.776 334.345 729.612 335.136 729.285 336.718C729.012 338.301 728.876 340.21 728.876 342.448V379.934C728.876 380.534 728.903 381.08 728.957 381.571C729.012 382.062 729.23 382.526 729.612 382.962C729.94 383.344 730.485 383.562 731.249 383.617C732.013 383.672 732.613 383.699 733.05 383.699C733.104 383.699 733.159 383.699 733.213 383.699C733.377 383.863 733.459 384.217 733.459 384.763C733.459 385.308 733.295 385.827 732.968 386.318C731.767 386.427 730.431 386.645 728.957 386.973C727.539 387.246 726.12 387.546 724.701 387.873C723.337 388.2 722.137 388.473 721.1 388.692C720.118 388.964 719.49 389.101 719.218 389.101C718.726 389.101 718.481 388.446 718.481 387.136V385.909C718.481 385.8 718.454 385.69 718.399 385.581C718.399 385.418 718.344 385.39 718.235 385.499C717.799 385.772 717.062 386.209 716.025 386.809C715.043 387.409 713.87 387.955 712.506 388.446C711.196 388.937 709.832 389.183 708.414 389.183C705.849 389.183 703.448 388.446 701.211 386.973C699.028 385.499 697.255 383.508 695.891 380.998C694.581 378.488 693.927 375.678 693.927 372.568C693.927 369.184 694.663 366.265 696.136 363.81C697.61 361.3 699.465 359.254 701.702 357.671C703.939 356.034 706.231 354.834 708.577 354.07C710.978 353.251 713.079 352.842 714.88 352.842ZM712.26 356.935C710.569 356.935 709.205 357.508 708.168 358.653C707.186 359.799 706.449 361.3 705.958 363.155C705.522 365.01 705.303 367.002 705.303 369.13C705.303 373.495 706.013 377.069 707.431 379.852C708.905 382.635 710.896 384.026 713.406 384.026C714.17 384.026 714.934 383.863 715.698 383.535C716.462 383.153 717.117 382.744 717.662 382.307C718.208 381.816 718.481 381.407 718.481 381.08V360.536C718.481 359.772 717.853 358.981 716.598 358.162C715.398 357.344 713.952 356.935 712.26 356.935Z" fill="#8D392D"/>
<path d="M440.896 177.94C441.241 178.643 441.764 181.805 441.898 183.439C442.541 191.314 442.438 200.168 434.215 203.759C431.231 205.063 427.637 205.224 424.393 204.944C423.325 204.851 422.442 203.994 421.381 203.897C418.987 203.681 413.907 206.918 411.214 207.758C399.778 211.329 389.631 211.751 380.87 221.414C376.508 226.225 371.624 237.013 370.895 243.439C369.843 252.73 360.261 267.604 360.261 267.604C360.261 267.604 328.325 231.457 281.51 218.124C294.945 211.147 306.652 190.998 307.679 187.224C308.407 184.549 309.127 181.76 308.895 178.94C310.194 178.688 303.02 151.707 311.009 123.435C312.311 118.83 320.242 120.492 323.366 120.969C339.948 123.507 356.733 120.01 366.381 104.926C368.051 102.315 369.19 97.8641 371.362 95.9071C373.699 93.8021 377.079 93.4652 379.603 92.1482C388.17 87.6822 395.196 77.9352 398.447 68.9922C401.755 59.8892 404.908 33.2411 420.245 41.0901C426.448 44.2651 429.046 49.1602 431.894 54.9402C437.247 65.7972 443.281 80.2362 441.894 92.4402C441.456 96.3092 439.223 108.211 441.33 109.853C446.221 113.668 448.609 121.932 452.421 126.915C454.971 130.246 461.933 136.094 461.951 140.45C461.964 143.766 458.965 145.615 457.884 146.429C454.564 148.93 446.358 146.903 445.001 151.546C443.731 155.888 445.019 158.033 446.792 160.548C447.418 161.435 447.025 162.328 446.254 164.163C445.471 166.021 442.667 166.886 442.667 166.886C442.667 166.886 445.464 169.696 444.945 171.442C444.451 173.113 439.848 175.795 440.896 177.94Z" fill="#8D392D"/>
<path d="M431.895 54.9402C429.046 49.1612 426.449 44.2651 420.246 41.0901C404.909 33.2411 401.756 59.8912 398.448 68.9922C395.197 77.9352 388.172 87.6822 379.604 92.1482C377.08 93.4642 373.7 93.8011 371.363 95.9071C369.19 97.8641 368.051 102.314 366.382 104.926C356.734 120.01 346.995 126.07 330.412 123.532C327.289 123.053 319.505 119.448 316.877 123.448C312.771 129.694 313.41 137.573 314.797 140.173C321.543 152.813 329.923 166.739 344.793 164C335.336 173.098 328.358 172.054 324.021 171.369C324.608 176.163 316.325 185.619 301.847 179.227C276.151 192.532 250.717 163.576 251.445 152.89C247.586 154.836 218.363 135.765 230.953 108.452C220.456 97.9661 231.412 69.4002 252.421 73.9892C257.613 68.0482 266.9 71.5651 266.897 72.9391C266.897 72.9391 266.726 65.2121 266.894 63.4361C269.198 39.1851 286.539 16.7701 308.869 7.41114C327.6 -0.438861 351.726 -2.37285 371.18 3.15415C375.96 4.51215 382.863 8.54615 387.402 7.93915C400.691 6.16415 408.32 6.19516 420.253 13.0822C435.649 21.9722 442.625 39.3542 431.895 54.9402Z" fill="#9BC9C3"/>
<path d="M394.035 431.453C367.736 430.712 340.618 430.681 313.495 430.847C306.652 430.889 301.623 433.608 297.008 439.279C283.389 456.007 265.618 458.121 246.719 454.654C235.562 452.607 225.183 448.203 216.62 439.818C207.173 430.57 207.18 419.23 217.324 410.932C235.855 395.77 256.576 391.524 278.933 398.557C286.498 400.938 292.866 405.796 297.792 412.482C301.651 417.716 306.394 419.639 312.374 419.635C356.246 419.612 400.041 417.621 443.804 414.283C456.626 413.303 469.492 411.719 482.392 413.253C485.462 413.618 488.515 414.159 491.228 415.911C497.187 419.753 497.417 427.044 491.601 431.211C487.464 434.174 482.679 434.988 477.83 435.219C459.537 436.087 441.322 434.125 423.076 433.271C413.664 432.828 404.26 432.104 394.035 431.453Z" fill="#8D392D"/>
<path d="M235.92 245.423C274.463 244.841 309.201 252.234 341.481 270.07C347.191 273.226 352.567 276.85 357.634 280.904C359.81 282.645 361.284 282.325 363.27 280.786C388.453 261.271 417.492 251.367 448.687 247.448C487.541 242.566 526.037 246.356 564.321 253.459C566.828 253.924 568.457 255.197 569.788 257.322C576.417 267.903 581.655 273.121 590.913 292.595C588.432 292.38 547.895 289.429 528.182 287.807C506.779 286.045 485.331 285.114 463.837 285.222C442.859 285.326 421.897 285.272 401.191 289.391C393.483 290.923 385.835 292.568 379.623 297.84C377.923 299.283 376.121 299.562 374.045 299.083C364.667 296.923 355.247 296.825 345.838 298.786C344.078 299.154 342.574 299.262 341.179 298.027C333.357 291.108 323.465 289.996 313.797 288.496C285.179 284.058 256.327 284.67 227.568 285.766C198.334 286.877 157.322 289.546 128.545 293.62C142.656 267.604 150.088 259.13 152.382 255.871C153.226 254.545 154.485 253.856 156.076 253.585C183.137 248.991 210.258 245.02 235.92 245.423ZM452.093 272.748C426.614 271.626 404.794 278.465 388.284 285.458C407.393 280.402 424.947 276.626 452.093 272.748ZM446.061 259.524C433.269 259.906 406.395 263.419 381.278 280.448C404.692 269.86 422.136 265.011 446.061 259.524ZM334.063 285.99C313.335 276.508 291.243 273.577 268.637 273.337C290.773 275.675 312.413 280.55 334.063 285.99ZM338.575 279.862C319.184 267.114 297.525 261.515 274.64 259.858C296.899 263.492 317.875 271.175 338.575 279.862Z" fill="#E0B175"/>
<path d="M223.944 296.3C258.926 296.3 293.909 296.326 328.891 296.25C331.583 296.244 333.625 296.681 335.283 299.046C337.461 302.15 340.892 303.735 344.29 305.088C354.254 309.053 364.418 309.112 374.639 306.144C377.867 305.207 381.425 304.028 383.181 301.277C386.561 295.979 391.279 296.084 396.597 296.098C464.395 296.291 532.193 296.342 599.991 296.439C601.655 296.441 603.348 296.381 604.976 296.656C607.367 297.059 608.065 298.959 608.19 301.089C608.328 303.435 607.188 304.98 604.863 305.295C603.06 305.539 601.207 305.456 599.377 305.455C531.744 305.394 464.111 305.342 396.48 305.211C393.343 305.205 390.725 305.482 388.545 308.151C387.338 309.63 385.447 310.757 383.643 311.505C365.207 319.134 347.374 319.136 330.843 306.619C328.764 305.045 326.794 305.414 324.744 305.413C256.779 305.361 188.813 305.36 120.848 305.351C120.015 305.351 119.179 305.305 118.349 305.359C115.028 305.58 112.581 304.373 112.593 300.791C112.605 297.074 115.293 296.397 118.499 296.401C153.648 296.444 188.796 296.428 223.945 296.428V296.3H223.944Z" fill="#5F5F13"/>
<path d="M354.049 275.105C354.049 275.105 335.57 262.8 327.56 258.975C302.59 247.051 276.252 241.162 248.755 239.187C223.033 237.339 165.601 243.745 164.142 243.745C175.697 227.967 175.706 224.94 183.605 224.166C308.579 211.896 354.049 275.105 354.049 275.105Z" fill="#E0B175"/>
<path d="M366.999 275.105C366.999 275.105 385.478 262.8 393.487 258.975C418.458 247.051 444.796 241.162 472.293 239.187C498.015 237.339 555.446 243.745 556.905 243.745C545.35 227.967 545.342 224.94 537.442 224.166C412.469 211.896 366.999 275.105 366.999 275.105Z" fill="#E0B175"/>
</svg>
